<svg width="40" height="40" viewBox="0 0 40 40" fill="none" xmlns="http://www.w3.org/2000/svg">
<g clip-path="url(#clip0_18_168)">
<path d="M39.2188 28.8281L29.6094 19.2188L38.8281 10C40.3125 8.51562 40.3125 6.17188 38.8281 4.6875L35.3125 1.17188C34.6094 0.390625 33.6719 0 32.6562 0C31.7188 0 30.7812 0.390625 30 1.17188L20.7812 10.3906L11.1719 0.78125C10.7031 0.3125 10.0781 0 9.45312 0C8.82812 0 8.20312 0.3125 7.73438 0.78125L0.703125 7.73438C-0.3125 8.75 -0.3125 10.3125 0.703125 11.25L10.3125 20.8594L1.48438 29.6875L0 38.125C-0.234375 39.2969 0.859375 40.2344 1.875 40L10.3125 38.5156L19.1406 29.6875L28.75 39.2969C29.1406 39.7656 29.7656 40 30.4688 40C31.0938 40 31.7188 39.7656 32.1875 39.2969L39.2188 32.2656C40.2344 31.3281 40.2344 29.7656 39.2188 28.8281ZM31.7969 2.89062C32.1094 2.57812 33.2031 2.57812 33.5938 2.89062L37.1094 6.40625C37.5781 6.95312 37.5781 7.73438 37.1094 8.20312L33.5156 11.7969L28.2031 6.48438L31.7969 2.89062ZM2.42188 9.53125L9.45312 2.57812L13.8281 6.875L10.7812 10C10.5469 10.2344 10.5469 10.625 10.7812 10.8594L11.6406 11.7188C11.875 11.9531 12.2656 11.9531 12.5 11.7188L15.625 8.67188L19.0625 12.1094L12.0312 19.1406L2.42188 9.53125ZM9.0625 36.25L2.65625 37.3438L3.75 30.9375L26.4062 8.28125L31.7188 13.5938L9.0625 36.25ZM30.4688 37.5781L20.8594 27.9688L27.8906 20.9375L31.3281 24.375L28.2812 27.5C28.0469 27.7344 28.0469 28.125 28.2812 28.3594L29.1406 29.2188C29.375 29.4531 29.7656 29.4531 30 29.2188L33.125 26.1719L37.5 30.5469L30.4688 37.5781Z" fill="#0C0C0C"/>
</g>
<defs>
<clipPath id="clip0_18_168">
<rect width="40" height="40" fill="white"/>
</clipPath>
</defs>
</svg>
