<svg width="40" height="40" viewBox="0 0 40 40" fill="none" xmlns="http://www.w3.org/2000/svg">
<g clip-path="url(#clip0_9_138)">
<path d="M3.00538 15.2205C4.19098 10.9996 6.88996 7.3888 10.6052 5.0536C14.046 2.89082 17.9938 1.99482 22.0221 2.46235C24.9423 2.80109 27.7368 3.87134 30.1236 5.53669L28.2748 5.60047L28.3554 7.94239L34.443 7.73304L34.223 1.72047L31.8808 1.80622L31.9604 3.97327C29.1519 1.88312 25.802 0.541878 22.2922 0.134468C20.079 -0.122184 17.8583 -0.0104902 15.6918 0.46711C13.4497 0.961494 11.3187 1.83704 9.35791 3.06934C5.14924 5.71461 2.09199 9.80518 0.749213 14.587C-0.584099 19.3343 -0.127251 24.3767 2.03522 28.7853L4.13941 27.7532C2.23115 23.8631 1.82831 19.4121 3.00538 15.2205Z" fill="#E329B0"/>
<path d="M37.4062 10.1589L35.367 11.3137C37.6058 15.2679 38.228 19.8791 37.1193 24.2977C36.0069 28.7301 33.2628 32.5109 29.3923 34.9438C25.8187 37.1899 21.556 38.0801 17.39 37.4505C14.1484 36.9607 11.1208 35.581 8.64398 33.4969L10.8284 33.4216L10.7479 31.0793L4.65991 31.289L4.88025 37.3016L7.22217 37.2155L7.15198 35.3042C9.9544 37.6568 13.3773 39.2141 17.04 39.7677C18.029 39.9172 19.023 39.9911 20.0136 39.9911C23.7505 39.9911 27.4391 38.9394 30.6395 36.9277C35.024 34.172 38.1322 29.8892 39.3923 24.8681C40.6484 19.8632 39.9431 14.6392 37.4062 10.1589Z" fill="#E329B0"/>
<path d="M32.4275 22.8031V16.6443L30.0533 16.1835C29.9266 15.8243 29.7805 15.4719 29.6157 15.1282L30.9712 13.1235L26.621 8.7644L24.6138 10.116C24.2638 9.94726 23.9049 9.79803 23.5387 9.66894L23.0779 7.29468H16.9191L16.4583 9.66894C16.0991 9.79559 15.7466 9.94177 15.403 10.1066L13.3983 8.75098L9.03918 13.1013L10.3908 15.1084C10.222 15.4584 10.0728 15.8173 9.94372 16.1832L7.56946 16.6443V22.8031L9.94372 23.2639C10.0704 23.6231 10.2166 23.9753 10.3813 24.3192L9.02576 26.3236L13.376 30.683L15.3835 29.3314C15.7332 29.5002 16.0921 29.6494 16.4583 29.7785L16.9191 32.1528H23.0779L23.5387 29.7785C23.8979 29.6518 24.2504 29.5057 24.5943 29.3409L26.5987 30.6965L30.9581 26.3462L29.6065 24.339C29.775 23.989 29.9245 23.6301 30.0536 23.2639L32.4275 22.8031ZM28.2091 21.2348L28.0159 21.9349C27.8334 22.5965 27.5676 23.2352 27.2264 23.8328L26.8657 24.4648L27.9347 26.0523L26.3109 27.6728L24.7255 26.6004L24.0926 26.9599C23.4993 27.2971 22.8658 27.5602 22.2097 27.7414L21.5096 27.9346L21.1455 29.8093H18.8515L18.4877 27.9346L17.7877 27.7414C17.1254 27.5586 16.487 27.2928 15.8898 26.9517L15.2577 26.5909L13.6702 27.66L12.0497 26.0361L13.1218 24.4507L12.7623 23.8181C12.4251 23.2245 12.1624 22.591 11.9811 21.9349L11.7879 21.2348L9.91321 20.8707V18.5767L11.7879 18.2129L11.9811 17.5129C12.1639 16.8509 12.4297 16.2125 12.7706 15.615L13.1316 14.983L12.0626 13.3954L13.6864 11.775L15.2718 12.8473L15.9044 12.4875C16.4977 12.1503 17.1315 11.8876 17.7877 11.7063L18.4877 11.5131L18.8515 9.63843H21.1455L21.5096 11.5131L22.2097 11.7063C22.8716 11.8891 23.5103 12.1549 24.1075 12.4958L24.7396 12.8568L26.3271 11.7878L27.9476 13.4113L26.8752 14.997L27.2347 15.6296C27.5719 16.2229 27.8347 16.8564 28.0159 17.5129L28.2094 18.2129L30.0841 18.5767V20.8707L28.2091 21.2348Z" fill="#E329B0"/>
<path d="M20.0962 13.6289C16.7353 13.6289 14.0012 16.363 14.0012 19.7239C14.0012 23.0845 16.7353 25.8185 20.0962 25.8185C23.4568 25.8185 26.1909 23.0845 26.1909 19.7239C26.1909 16.363 23.4568 13.6289 20.0962 13.6289ZM20.0962 23.4751C18.0277 23.4751 16.3447 21.7921 16.3447 19.7236C16.3447 17.6551 18.0277 15.9724 20.0962 15.9724C22.1647 15.9724 23.8474 17.6551 23.8474 19.7236C23.8474 21.7921 22.1647 23.4751 20.0962 23.4751Z" fill="#E329B0"/>
</g>
<defs>
<clipPath id="clip0_9_138">
<rect width="40" height="40" fill="white"/>
</clipPath>
</defs>
</svg>
