<svg width="40" height="40" viewBox="0 0 40 40" fill="none" xmlns="http://www.w3.org/2000/svg">
<g clip-path="url(#clip0_9_93)">
<path d="M30.7173 17.3877C30.7173 11.4848 25.9113 6.70446 19.9987 6.7461C14.2133 6.78688 9.48571 11.5049 9.43391 17.2902C9.40594 20.4123 10.7225 23.2272 12.8396 25.1912C13.9307 26.2034 14.5634 27.6152 14.5634 29.1035V34.3262H25.5873V29.0891C25.5873 27.6167 26.2038 26.212 27.2864 25.214C29.3959 23.2695 30.7173 20.4829 30.7173 17.3877Z" stroke="#E329B0" stroke-width="2.8125" stroke-miterlimit="10"/>
<path d="M14.5634 29.1033H25.5872" stroke="#E329B0" stroke-width="2.8125" stroke-miterlimit="10"/>
<path d="M23.1983 34.3259V35.6993C23.1983 37.4241 21.8001 38.8223 20.0753 38.8223C18.3505 38.8223 16.9523 37.4241 16.9523 35.6993V34.3259" stroke="#E329B0" stroke-width="2.8125" stroke-miterlimit="10"/>
<path d="M20.0754 29.1033V23.2159" stroke="#E329B0" stroke-width="2.8125" stroke-miterlimit="10"/>
<path d="M23.2605 18.2792V21.1671L20.0753 23.2158L16.8901 21.1671V18.2792" stroke="#E329B0" stroke-width="2.8125" stroke-miterlimit="10"/>
<path d="M19.9989 3.16675V2.95679e-05" stroke="#E329B0" stroke-width="2.8125" stroke-miterlimit="10"/>
<path d="M12.8881 5.07202L11.3007 2.32249" stroke="#E329B0" stroke-width="2.8125" stroke-miterlimit="10"/>
<path d="M7.683 10.2771L4.93347 8.68968" stroke="#E329B0" stroke-width="2.8125" stroke-miterlimit="10"/>
<path d="M5.77787 17.3877H2.60303" stroke="#E329B0" stroke-width="2.8125" stroke-miterlimit="10"/>
<path d="M34.2196 17.3877H37.3944" stroke="#E329B0" stroke-width="2.8125" stroke-miterlimit="10"/>
<path d="M32.3143 10.2771L35.0639 8.68968" stroke="#E329B0" stroke-width="2.8125" stroke-miterlimit="10"/>
<path d="M27.1089 5.07202L28.6963 2.32249" stroke="#E329B0" stroke-width="2.8125" stroke-miterlimit="10"/>
</g>
<defs>
<clipPath id="clip0_9_93">
<rect width="40" height="40" fill="white"/>
</clipPath>
</defs>
</svg>
