<svg width="40" height="40" viewBox="0 0 40 40" fill="none" xmlns="http://www.w3.org/2000/svg">
<g clip-path="url(#clip0_9_126)">
<path d="M15.9088 20.9336V15.9089H10.8841C10.8841 14.6145 9.83484 13.5652 8.54039 13.5652C7.24594 13.5652 6.19664 14.6145 6.19664 15.9089H1.17188V30.6459H15.9088V25.6212C14.6144 25.6212 13.5651 24.5719 13.5651 23.2775C13.5651 21.983 14.6144 20.9336 15.9088 20.9336Z" stroke="#E329B0" stroke-width="2.8125" stroke-miterlimit="10"/>
<path d="M10.8841 15.9088H15.9088V10.8841C17.2032 10.8841 18.2525 9.83484 18.2525 8.54039C18.2525 7.24594 17.2032 6.19664 15.9088 6.19664V1.17188H1.17188V15.9088H6.19656C6.19656 14.6144 7.24586 13.5651 8.54031 13.5651C9.83477 13.5651 10.8841 14.6144 10.8841 15.9088Z" stroke="#E329B0" stroke-width="2.8125" stroke-miterlimit="10"/>
<path d="M15.9086 10.8841V15.9088H20.9333C20.9333 17.2032 21.9826 18.2525 23.2771 18.2525C24.5715 18.2525 25.6208 17.2032 25.6208 15.9088H30.6455V1.17188H15.9086V6.19656C17.2031 6.19656 18.2524 7.24586 18.2524 8.54031C18.2524 9.83477 17.203 10.8841 15.9086 10.8841Z" stroke="#E329B0" stroke-width="2.8125" stroke-miterlimit="10"/>
<path d="M29.1161 24.0911H24.0914V29.1158C22.797 29.1158 21.7477 30.165 21.7477 31.4595C21.7477 32.754 22.797 33.8033 24.0914 33.8033V38.828H38.8283V24.0911H33.8036C33.8036 25.3855 32.7543 26.4348 31.4599 26.4348C30.1654 26.4348 29.1161 25.3855 29.1161 24.0911Z" stroke="#E329B0" stroke-width="2.8125" stroke-miterlimit="10"/>
</g>
<defs>
<clipPath id="clip0_9_126">
<rect width="40" height="40" fill="white"/>
</clipPath>
</defs>
</svg>
