<svg width="40" height="40" viewBox="0 0 40 40" fill="none" xmlns="http://www.w3.org/2000/svg">
<path d="M37.5 27.5V25C37.5 17.1094 32.1875 10.4688 25 8.35938V7.5C25 6.17188 23.8281 5 22.5 5H17.5C16.0938 5 15 6.17188 15 7.5V8.35938C7.73438 10.4688 2.5 17.1094 2.5 25V27.5C1.09375 27.5 0 28.6719 0 30V32.5C0 33.9062 1.09375 35 2.5 35H37.5C38.8281 35 40 33.9062 40 32.5V30C40 28.6719 38.8281 27.5 37.5 27.5ZM5 25C5 18.9062 8.75 13.6719 14.0625 11.4062L16.0938 19.5312C16.1719 19.8438 16.4062 20 16.7969 20C17.1094 20 17.4219 19.6875 17.5 19.2969V7.5H22.5V19.2969C22.5 19.6875 22.8125 20 23.125 20C23.5156 20 23.75 19.8438 23.8281 19.5312L25.8594 11.4062C31.1719 13.6719 35 18.9062 35 25V27.5H5V25ZM37.5 32.5H2.5V30H37.5V32.5Z" fill="#070707"/>
</svg>
