    <svg
      width="351"
      height="213"
      viewBox="0 0 351 213"
      fill="none"
      xmlns="http://www.w3.org/2000/svg"
    >
      <g filter="url(#filter0_d_36_390)">
        <g clip-path="url(#clip0_36_390)">
          <rect x="17" y="3" width="313" height="175" rx="8" fill="#464646"
          ></rect>
          <g clip-path="url(#clip1_36_390)">
            <path
              d="M51.1831 31.175L47.3581 35L51.1831 38.825L49.9998 40L44.9998 35L49.9998 30L51.1831 31.175Z"
              fill="#B5BEC6"></path>
            <path
              d="M125.847 28.9C125.091 28.186 123.957 27.836 122.963 27.836C121.171 27.836 119.337 28.732 119.337 30.748C119.337 32.596 120.639 33.184 121.843 33.562C123.089 33.954 124.125 34.248 124.125 35.284C124.125 36.348 123.159 36.754 122.333 36.754C121.549 36.754 120.653 36.334 120.163 35.662L118.903 36.838C119.687 37.762 121.017 38.252 122.305 38.252C124.251 38.252 125.917 37.216 125.917 35.088C125.917 33.142 124.293 32.582 123.019 32.19C121.899 31.84 121.129 31.574 121.129 30.664C121.129 29.698 122.067 29.306 122.879 29.306C123.579 29.306 124.321 29.67 124.699 30.16L125.847 28.9ZM128.888 33.968C128.958 33.03 129.756 32.344 130.75 32.344C131.842 32.344 132.332 33.1 132.332 33.968H128.888ZM134.012 34.724C134.012 32.302 132.64 31.084 130.764 31.084C128.734 31.084 127.208 32.512 127.208 34.682C127.208 36.866 128.748 38.196 130.82 38.196C132.094 38.196 133.046 37.748 133.704 36.852L132.584 35.956C132.206 36.488 131.646 36.824 130.806 36.824C129.826 36.824 128.958 36.124 128.888 35.172H133.998C134.012 35.018 134.012 34.878 134.012 34.724ZM135.639 31.28V41.36H137.319V37.104H137.347C137.781 37.776 138.635 38.196 139.573 38.196C141.617 38.196 142.877 36.572 142.877 34.612C142.877 32.624 141.533 31.084 139.615 31.084C138.383 31.084 137.627 31.686 137.291 32.218H137.249V31.28H135.639ZM141.169 34.612C141.169 35.662 140.539 36.796 139.237 36.796C138.005 36.796 137.263 35.69 137.263 34.64C137.263 33.59 138.005 32.456 139.237 32.456C140.539 32.456 141.169 33.562 141.169 34.612ZM144.708 32.624V35.76C144.708 37.048 145.114 38.14 146.892 38.14C147.27 38.14 147.718 38.07 148.012 37.958L147.956 36.642C147.76 36.74 147.466 36.782 147.242 36.782C146.5 36.782 146.36 36.348 146.36 35.746V32.624H148.04V31.28H146.36V29.334H144.708V31.28H143.532V32.624H144.708ZM150.544 33.968C150.614 33.03 151.412 32.344 152.406 32.344C153.498 32.344 153.988 33.1 153.988 33.968H150.544ZM155.668 34.724C155.668 32.302 154.296 31.084 152.42 31.084C150.39 31.084 148.864 32.512 148.864 34.682C148.864 36.866 150.404 38.196 152.476 38.196C153.75 38.196 154.702 37.748 155.36 36.852L154.24 35.956C153.862 36.488 153.302 36.824 152.462 36.824C151.482 36.824 150.614 36.124 150.544 35.172H155.654C155.668 35.018 155.668 34.878 155.668 34.724ZM165.317 31.084C164.309 31.084 163.553 31.546 163.105 32.358C162.727 31.602 162.041 31.084 161.005 31.084C159.927 31.084 159.213 31.7 158.919 32.358H158.891V31.28H157.295V38H158.975V34.304C158.975 33.408 159.437 32.484 160.445 32.484C161.299 32.484 161.691 33.114 161.691 33.94V38H163.371V34.332C163.371 33.464 163.805 32.484 164.855 32.484C165.933 32.484 166.115 33.478 166.115 34.276V38H167.795V33.8C167.795 32.428 167.067 31.084 165.317 31.084ZM169.778 27.416V38H171.374V36.992H171.402C171.864 37.762 172.774 38.196 173.712 38.196C175.756 38.196 177.016 36.572 177.016 34.612C177.016 32.624 175.672 31.084 173.754 31.084C172.522 31.084 171.85 31.7 171.5 32.134H171.458V27.416H169.778ZM175.308 34.612C175.308 35.662 174.678 36.796 173.376 36.796C172.144 36.796 171.402 35.69 171.402 34.64C171.402 33.59 172.144 32.456 173.376 32.456C174.678 32.456 175.308 33.562 175.308 34.612ZM179.925 33.968C179.995 33.03 180.793 32.344 181.787 32.344C182.879 32.344 183.369 33.1 183.369 33.968H179.925ZM185.049 34.724C185.049 32.302 183.677 31.084 181.801 31.084C179.771 31.084 178.245 32.512 178.245 34.682C178.245 36.866 179.785 38.196 181.857 38.196C183.131 38.196 184.083 37.748 184.741 36.852L183.621 35.956C183.243 36.488 182.683 36.824 181.843 36.824C180.863 36.824 179.995 36.124 179.925 35.172H185.035C185.049 35.018 185.049 34.878 185.049 34.724ZM186.676 38H188.356V34.402C188.356 33.912 188.65 32.596 190.162 32.596C190.316 32.596 190.456 32.61 190.68 32.666V31.126C190.568 31.098 190.4 31.084 190.274 31.084C189.392 31.084 188.678 31.63 188.314 32.4H188.286V31.28H186.676V38ZM195.234 38H201.828V36.46H197.362L200.218 33.73C201.1 32.89 201.814 32.008 201.814 30.734C201.814 28.83 200.232 27.836 198.51 27.836C196.69 27.836 195.36 29.04 195.164 30.678L196.802 30.93C196.928 29.964 197.53 29.236 198.482 29.236C199.378 29.236 200.064 29.838 200.064 30.762C200.064 31.532 199.672 32.106 199.056 32.708L195.234 36.46V38ZM210.583 33.044C210.583 29.838 209.337 27.836 207.097 27.836C204.843 27.836 203.583 29.838 203.583 33.044C203.583 36.25 204.843 38.252 207.097 38.252C209.337 38.252 210.583 36.25 210.583 33.044ZM208.861 33.044C208.861 34.43 208.595 36.824 207.097 36.824C205.585 36.824 205.305 34.43 205.305 33.044C205.305 31.658 205.585 29.236 207.097 29.236C208.595 29.236 208.861 31.658 208.861 33.044ZM212.323 38H218.917V36.46H214.451L217.307 33.73C218.189 32.89 218.903 32.008 218.903 30.734C218.903 28.83 217.321 27.836 215.599 27.836C213.779 27.836 212.449 29.04 212.253 30.678L213.891 30.93C214.017 29.964 214.619 29.236 215.571 29.236C216.467 29.236 217.153 29.838 217.153 30.762C217.153 31.532 216.761 32.106 216.145 32.708L212.323 36.46V38ZM223.808 38H225.488V28.088H223.962L220.868 30.58L221.848 31.742L223.808 30.132V38Z"
              fill="white"></path>
            <path
              d="M295 38.825L298.825 35L295 31.175L296.183 30L301.183 35L296.183 40L295 38.825Z"
              fill="#B5BEC6"></path>
          </g>
          <path
            d="M49.4073 71.5C48.8673 70.99 48.0573 70.74 47.3473 70.74C46.0673 70.74 44.7573 71.38 44.7573 72.82C44.7573 74.14 45.6873 74.56 46.5473 74.83C47.4373 75.11 48.1773 75.32 48.1773 76.06C48.1773 76.82 47.4873 77.11 46.8973 77.11C46.3373 77.11 45.6973 76.81 45.3473 76.33L44.4473 77.17C45.0073 77.83 45.9573 78.18 46.8773 78.18C48.2673 78.18 49.4573 77.44 49.4573 75.92C49.4573 74.53 48.2973 74.13 47.3873 73.85C46.5873 73.6 46.0373 73.41 46.0373 72.76C46.0373 72.07 46.7073 71.79 47.2873 71.79C47.7873 71.79 48.3173 72.05 48.5873 72.4L49.4073 71.5ZM51.3595 78H52.7695L53.4095 76.38H56.4795L57.1395 78H58.5795L55.5295 70.92H54.4395L51.3595 78ZM53.8395 75.3L54.9495 72.42L56.0395 75.3H53.8395ZM60.78 78H62.04V72.53H62.06L65.42 78H67.02V70.92H65.76V76.22H65.74L62.45 70.92H60.78V78Z"
            fill="#B5BEC6"></path>
          <path
            d="M79.7859 78H80.9859V72.31H81.0059L83.1259 78H84.0059L86.1559 72.31H86.1759V78H87.4259V70.92H85.4459L83.6259 75.95H83.5959L81.7559 70.92H79.7859V78ZM90.1451 74.44C90.1451 76.65 91.7551 78.18 93.9351 78.18C96.1451 78.18 97.7551 76.65 97.7551 74.44C97.7551 72.17 96.1451 70.74 93.9351 70.74C91.7551 70.74 90.1451 72.17 90.1451 74.44ZM91.5151 74.44C91.5151 72.98 92.4851 71.85 93.9451 71.85C95.4151 71.85 96.3851 72.98 96.3851 74.44C96.3851 75.95 95.3951 77.05 93.9451 77.05C92.5051 77.05 91.5151 75.95 91.5151 74.44ZM100.471 78H101.731V72.53H101.751L105.111 78H106.711V70.92H105.451V76.22H105.431L102.141 70.92H100.471V78Z"
            fill="#B5BEC6"></path>
          <path
            d="M123.247 78H124.507V72.02H126.677V70.92H121.077V72.02H123.247V78ZM134.641 70.92H133.381V75.35C133.381 76.17 133.001 77.05 131.791 77.05C130.581 77.05 130.201 76.17 130.201 75.35V70.92H128.941V75.4C128.941 77.11 130.171 78.18 131.791 78.18C133.411 78.18 134.641 77.11 134.641 75.4V70.92ZM137.639 78H142.509V76.88H138.899V74.88H142.149V73.82H138.899V72.02H142.329V70.92H137.639V78Z"
            fill="#B5BEC6"></path>
          <path
            d="M158.74 78H159.96L161.62 72.69H161.64L163.3 78H164.52L166.59 70.92H165.25L163.85 76.12H163.83L162.3 70.92H161L159.44 76.12H159.42L158.05 70.92H156.67L158.74 78ZM168.929 78H173.799V76.88H170.189V74.88H173.439V73.82H170.189V72.02H173.619V70.92H168.929V78ZM176.533 78H179.043C180.893 78 182.953 76.94 182.953 74.46C182.953 71.8 180.893 70.92 179.043 70.92H176.533V78ZM177.793 76.9V72H178.843C180.143 72 181.603 72.43 181.603 74.46C181.603 76.37 180.143 76.9 178.843 76.9H177.793Z"
            fill="#B5BEC6"></path>
          <path
            d="M198.603 78H199.863V72.02H202.033V70.92H196.433V72.02H198.603V78ZM204.356 78H205.616V74.86H208.926V78H210.186V70.92H208.926V73.78H205.616V70.92H204.356V78ZM218.889 70.92H217.629V75.35C217.629 76.17 217.249 77.05 216.039 77.05C214.829 77.05 214.449 76.17 214.449 75.35V70.92H213.189V75.4C213.189 77.11 214.419 78.18 216.039 78.18C217.659 78.18 218.889 77.11 218.889 75.4V70.92Z"
            fill="#B5BEC6"></path>
          <path
            d="M237.858 78H239.118V75.02H242.238V73.96H239.118V72.02H242.428V70.92H237.858V78ZM245.091 78H246.351V75H247.271L248.911 78H250.431L248.541 74.86C249.531 74.64 250.161 73.97 250.161 72.95C250.161 71.45 248.881 70.92 247.551 70.92H245.091V78ZM246.351 73.97V71.98H247.491C248.141 71.98 248.901 72.17 248.901 72.94C248.901 73.8 248.091 73.97 247.381 73.97H246.351ZM252.88 78H254.14V70.92H252.88V78Z"
            fill="#B5BEC6"></path>
          <path
            d="M278.765 71.5C278.225 70.99 277.415 70.74 276.705 70.74C275.425 70.74 274.115 71.38 274.115 72.82C274.115 74.14 275.045 74.56 275.905 74.83C276.795 75.11 277.535 75.32 277.535 76.06C277.535 76.82 276.845 77.11 276.255 77.11C275.695 77.11 275.055 76.81 274.705 76.33L273.805 77.17C274.365 77.83 275.315 78.18 276.235 78.18C277.625 78.18 278.815 77.44 278.815 75.92C278.815 74.53 277.655 74.13 276.745 73.85C275.945 73.6 275.395 73.41 275.395 72.76C275.395 72.07 276.065 71.79 276.645 71.79C277.145 71.79 277.675 72.05 277.945 72.4L278.765 71.5ZM280.717 78H282.127L282.767 76.38H285.837L286.497 78H287.937L284.887 70.92H283.797L280.717 78ZM283.197 75.3L284.307 72.42L285.397 75.3H283.197ZM290.972 78H292.232V72.02H294.402V70.92H288.802V72.02H290.972V78Z"
            fill="#B5BEC6"></path>
          <path
            d="M55.5812 127.5H57.5012V116.172H55.7572L52.2212 119.02L53.3412 120.348L55.5812 118.508V127.5Z"
            fill="white"></path>
          <path
            d="M90.2212 127.5H97.7572V125.74H92.6532L95.9172 122.62C96.9252 121.66 97.7412 120.652 97.7412 119.196C97.7412 117.02 95.9332 115.884 93.9652 115.884C91.8852 115.884 90.3652 117.26 90.1412 119.132L92.0132 119.42C92.1572 118.316 92.8452 117.484 93.9332 117.484C94.9572 117.484 95.7412 118.172 95.7412 119.228C95.7412 120.108 95.2932 120.764 94.5892 121.452L90.2212 125.74V127.5Z"
            fill="white"></path>
          <path
            d="M130.509 122.364H130.989C132.189 122.364 133.741 122.812 133.741 124.284C133.741 125.644 132.653 126.156 131.661 126.156C130.461 126.156 129.677 125.452 129.405 124.556L127.613 125.116C128.221 127.004 129.821 127.788 131.725 127.788C133.645 127.788 135.677 126.652 135.677 124.3C135.677 122.908 134.717 121.852 133.341 121.58V121.548C134.573 121.244 135.373 120.204 135.373 118.988C135.373 116.956 133.709 115.884 131.725 115.884C129.917 115.884 128.429 116.956 128.029 118.476L129.837 118.94C130.061 118.076 130.717 117.484 131.645 117.484C132.605 117.484 133.437 118.092 133.437 119.116C133.437 120.508 132.157 120.828 131.021 120.828H130.509V122.364Z"
            fill="white"></path>
          <path
            d="M170.685 127.5H172.573V125.148H174.157V123.5H172.573V116.172H170.269L165.453 123.452V125.148H170.685V127.5ZM170.685 123.5H167.437L170.653 118.428H170.685V123.5Z"
            fill="white"></path>
          <path
            d="M211.197 116.172H204.749L204.557 122.364C205.245 122.012 206.333 121.74 207.197 121.74C208.429 121.74 209.725 122.252 209.725 123.996C209.725 125.372 208.749 126.156 207.613 126.156C206.605 126.156 205.805 125.564 205.485 124.668L203.741 125.308C204.333 126.828 205.677 127.788 207.565 127.788C209.821 127.788 211.693 126.3 211.693 123.788C211.693 121.5 210.013 120.204 207.789 120.204C207.389 120.204 206.813 120.252 206.461 120.348L206.573 117.9H211.197V116.172Z"
            fill="white"></path>
          <path
            d="M245.837 116.172L243.005 120.556C242.269 121.724 241.837 122.604 241.837 123.9C241.837 126.092 243.613 127.788 245.981 127.788C248.301 127.788 250.109 126.22 250.109 123.82C250.109 121.756 248.493 120.188 246.493 120.188C246.109 120.188 245.597 120.252 245.293 120.38L245.277 120.364L248.173 116.172H245.837ZM243.789 123.948C243.789 122.62 244.701 121.708 245.997 121.708C247.277 121.708 248.141 122.636 248.141 123.916C248.141 125.26 247.261 126.156 245.965 126.156C244.637 126.156 243.789 125.132 243.789 123.948Z"
            fill="white"></path>
          <path
            d="M279.933 117.9H285.613L280.845 127.5H283.101L287.629 117.932V116.172H279.933V117.9Z"
            fill="white"></path>
          <path
            d="M55.9972 153.884C54.0132 153.884 52.4132 155.116 52.4132 157.036C52.4132 158.348 53.1652 159.148 54.1732 159.516V159.548C53.0692 159.836 52.0452 160.828 52.0452 162.3C52.0452 164.556 53.8212 165.788 55.9972 165.788C58.1732 165.788 59.9492 164.556 59.9492 162.3C59.9492 160.908 59.0052 159.836 57.8212 159.548V159.516C58.8452 159.18 59.5812 158.268 59.5812 156.956C59.5812 155.036 57.9812 153.884 55.9972 153.884ZM55.9972 155.468C56.8612 155.468 57.6452 156.092 57.6452 157.068C57.6452 157.98 56.9092 158.716 55.9972 158.716C55.0052 158.716 54.3652 157.98 54.3652 157.068C54.3652 156.092 55.0532 155.468 55.9972 155.468ZM55.9972 160.348C57.0852 160.348 57.9492 161.164 57.9492 162.284C57.9492 163.468 57.1012 164.172 55.9972 164.172C54.8772 164.172 54.0292 163.468 54.0292 162.284C54.0292 161.132 54.8932 160.348 55.9972 160.348Z"
            fill="white"></path>
          <path
            d="M94.1412 165.5L96.9732 161.116C97.7092 159.948 98.1412 159.068 98.1412 157.772C98.1412 155.58 96.3652 153.884 93.9972 153.884C91.6772 153.884 89.8692 155.452 89.8692 157.852C89.8692 159.916 91.4852 161.484 93.4852 161.484C93.8692 161.484 94.3812 161.42 94.7012 161.276L94.7172 161.292L91.8052 165.5H94.1412ZM96.1892 157.724C96.1892 159.052 95.2772 159.964 93.9812 159.964C92.7012 159.964 91.8372 159.036 91.8372 157.756C91.8372 156.412 92.7172 155.484 94.0132 155.484C95.3412 155.484 96.1892 156.54 96.1892 157.724Z"
            fill="white"></path>
          <path
            d="M126.698 165.5H128.618V154.172H126.874L123.338 157.02L124.458 158.348L126.698 156.508V165.5ZM140.88 159.836C140.88 156.172 139.456 153.884 136.896 153.884C134.32 153.884 132.88 156.172 132.88 159.836C132.88 163.5 134.32 165.788 136.896 165.788C139.456 165.788 140.88 163.5 140.88 159.836ZM138.912 159.836C138.912 161.42 138.608 164.156 136.896 164.156C135.168 164.156 134.848 161.42 134.848 159.836C134.848 158.252 135.168 155.484 136.896 155.484C138.608 155.484 138.912 158.252 138.912 159.836Z"
            fill="white"></path>
          <path
            d="M164.698 165.5H166.618V154.172H164.874L161.338 157.02L162.458 158.348L164.698 156.508V165.5ZM174.464 165.5H176.384V154.172H174.64L171.104 157.02L172.224 158.348L174.464 156.508V165.5Z"
            fill="white"></path>
          <path
            d="M202.698 165.5H204.618V154.172H202.874L199.338 157.02L200.458 158.348L202.698 156.508V165.5ZM209.104 165.5H216.64V163.74H211.536L214.8 160.62C215.808 159.66 216.624 158.652 216.624 157.196C216.624 155.02 214.816 153.884 212.848 153.884C210.768 153.884 209.248 155.26 209.024 157.132L210.896 157.42C211.04 156.316 211.728 155.484 212.816 155.484C213.84 155.484 214.624 156.172 214.624 157.228C214.624 158.108 214.176 158.764 213.472 159.452L209.104 163.74V165.5Z"
            fill="white"></path>
          <path
            d="M240.698 165.5H242.618V154.172H240.874L237.338 157.02L238.458 158.348L240.698 156.508V165.5ZM249.392 160.364H249.872C251.072 160.364 252.624 160.812 252.624 162.284C252.624 163.644 251.536 164.156 250.544 164.156C249.344 164.156 248.56 163.452 248.288 162.556L246.496 163.116C247.104 165.004 248.704 165.788 250.608 165.788C252.528 165.788 254.56 164.652 254.56 162.3C254.56 160.908 253.6 159.852 252.224 159.58V159.548C253.456 159.244 254.256 158.204 254.256 156.988C254.256 154.956 252.592 153.884 250.608 153.884C248.8 153.884 247.312 154.956 246.912 156.476L248.72 156.94C248.944 156.076 249.6 155.484 250.528 155.484C251.488 155.484 252.32 156.092 252.32 157.116C252.32 158.508 251.04 158.828 249.904 158.828H249.392V160.364Z"
            fill="white"></path>
          <path
            d="M278.698 165.5H280.618V154.172H278.874L275.338 157.02L276.458 158.348L278.698 156.508V165.5ZM289.568 165.5H291.456V163.148H293.04V161.5H291.456V154.172H289.152L284.336 161.452V163.148H289.568V165.5ZM289.568 161.5H286.32L289.536 156.428H289.568V161.5Z"
            fill="white"></path>
        </g>
      </g>
      <defs>
        <filter
          id="filter0_d_36_390"
          x="0"
          y="0"
          width="351"
          height="213"
          filterUnits="userSpaceOnUse"
          color-interpolation-filters="sRGB"
        >
          <feFlood flood-opacity="0" result="BackgroundImageFix"></feFlood>
          <feColorMatrix
            in="SourceAlpha"
            type="matrix"
            values="0 0 0 0 0 0 0 0 0 0 0 0 0 0 0 0 0 0 127 0"
            result="hardAlpha"></feColorMatrix>
          <feOffset dx="2" dy="16"></feOffset>
          <feGaussianBlur stdDeviation="9.5"></feGaussianBlur>
          <feColorMatrix
            type="matrix"
            values="0 0 0 0 0 0 0 0 0 0 0 0 0 0 0 0 0 0 0.09 0"></feColorMatrix>
          <feBlend
            mode="normal"
            in2="BackgroundImageFix"
            result="effect1_dropShadow_36_390"></feBlend>
          <feBlend
            mode="normal"
            in="SourceGraphic"
            in2="effect1_dropShadow_36_390"
            result="shape"></feBlend>
        </filter>
        <clipPath id="clip0_36_390">
          <rect x="17" y="3" width="313" height="175" rx="8" fill="white"
          ></rect>
        </clipPath>
        <clipPath id="clip1_36_390">
          <rect
            width="265"
            height="16"
            fill="white"
            transform="translate(41 27)"></rect>
        </clipPath>
      </defs>
    </svg>
