<svg width="382" height="162" viewBox="0 0 382 162" fill="none" xmlns="http://www.w3.org/2000/svg">
<g clip-path="url(#clip0_36_53595)">
<rect x="21" y="21" width="24" height="23" rx="3" fill="white"/>
<rect x="21" y="21" width="24" height="23" rx="3" stroke="black" stroke-width="2"/>
<path d="M71.2642 30.4545H75.0568L79.0625 40.2273H79.233L83.2386 30.4545H87.0312V45H84.0483V35.5327H83.9276L80.1634 44.929H78.1321L74.3679 35.4972H74.2472V45H71.2642V30.4545ZM94.4798 45.2131C93.3576 45.2131 92.3917 44.9858 91.582 44.5312C90.7771 44.072 90.1568 43.4233 89.7212 42.5852C89.2856 41.7424 89.0678 40.7457 89.0678 39.5952C89.0678 38.473 89.2856 37.4882 89.7212 36.6406C90.1568 35.7931 90.77 35.1326 91.5607 34.6591C92.3562 34.1856 93.2889 33.9489 94.359 33.9489C95.0787 33.9489 95.7487 34.0649 96.369 34.2969C96.994 34.5241 97.5385 34.8674 98.0025 35.3267C98.4712 35.786 98.8358 36.3636 99.0962 37.0597C99.3567 37.7509 99.4869 38.5606 99.4869 39.4886V40.3196H90.2752V38.4446H96.6388C96.6388 38.009 96.5442 37.6231 96.3548 37.2869C96.1654 36.9508 95.9026 36.688 95.5664 36.4986C95.235 36.3045 94.8491 36.2074 94.4087 36.2074C93.9495 36.2074 93.5423 36.3139 93.1871 36.527C92.8368 36.7353 92.5621 37.017 92.3633 37.3722C92.1644 37.7225 92.0626 38.1132 92.0579 38.544V40.3267C92.0579 40.8665 92.1573 41.3329 92.3562 41.7259C92.5598 42.1188 92.8462 42.4219 93.2156 42.6349C93.5849 42.848 94.0228 42.9545 94.5295 42.9545C94.8656 42.9545 95.1734 42.9072 95.4528 42.8125C95.7321 42.7178 95.9712 42.5758 96.1701 42.3864C96.369 42.197 96.5205 41.965 96.6246 41.6903L99.4229 41.875C99.2809 42.5473 98.9897 43.1345 98.5494 43.6364C98.1138 44.1335 97.5503 44.5218 96.859 44.8011C96.1725 45.0758 95.3794 45.2131 94.4798 45.2131ZM106.433 45.2131C105.311 45.2131 104.345 44.9858 103.535 44.5312C102.73 44.072 102.11 43.4233 101.674 42.5852C101.239 41.7424 101.021 40.7457 101.021 39.5952C101.021 38.473 101.239 37.4882 101.674 36.6406C102.11 35.7931 102.723 35.1326 103.514 34.6591C104.309 34.1856 105.242 33.9489 106.312 33.9489C107.032 33.9489 107.702 34.0649 108.322 34.2969C108.947 34.5241 109.492 34.8674 109.956 35.3267C110.424 35.786 110.789 36.3636 111.049 37.0597C111.31 37.7509 111.44 38.5606 111.44 39.4886V40.3196H102.228V38.4446H108.592C108.592 38.009 108.497 37.6231 108.308 37.2869C108.118 36.9508 107.856 36.688 107.52 36.4986C107.188 36.3045 106.802 36.2074 106.362 36.2074C105.903 36.2074 105.495 36.3139 105.14 36.527C104.79 36.7353 104.515 37.017 104.316 37.3722C104.118 37.7225 104.016 38.1132 104.011 38.544V40.3267C104.011 40.8665 104.11 41.3329 104.309 41.7259C104.513 42.1188 104.799 42.4219 105.169 42.6349C105.538 42.848 105.976 42.9545 106.483 42.9545C106.819 42.9545 107.127 42.9072 107.406 42.8125C107.685 42.7178 107.924 42.5758 108.123 42.3864C108.322 42.197 108.474 41.965 108.578 41.6903L111.376 41.875C111.234 42.5473 110.943 43.1345 110.502 43.6364C110.067 44.1335 109.503 44.5218 108.812 44.8011C108.126 45.0758 107.333 45.2131 106.433 45.2131ZM119.217 34.0909V36.3636H112.647V34.0909H119.217ZM114.139 31.4773H117.164V41.6477C117.164 41.9271 117.207 42.1449 117.292 42.3011C117.377 42.4527 117.496 42.5592 117.647 42.6207C117.804 42.6823 117.984 42.7131 118.187 42.7131C118.329 42.7131 118.471 42.7012 118.613 42.6776C118.755 42.6491 118.864 42.6278 118.94 42.6136L119.416 44.8651C119.264 44.9124 119.051 44.9669 118.777 45.0284C118.502 45.0947 118.168 45.1349 117.775 45.1491C117.046 45.1776 116.407 45.0805 115.858 44.858C115.313 44.6354 114.889 44.2898 114.586 43.821C114.283 43.3523 114.134 42.7604 114.139 42.0455V31.4773ZM121.188 45V34.0909H124.213V45H121.188ZM122.708 32.6847C122.258 32.6847 121.872 32.5355 121.55 32.2372C121.233 31.9342 121.074 31.572 121.074 31.1506C121.074 30.7339 121.233 30.3764 121.55 30.0781C121.872 29.7751 122.258 29.6236 122.708 29.6236C123.158 29.6236 123.541 29.7751 123.858 30.0781C124.18 30.3764 124.341 30.7339 124.341 31.1506C124.341 31.572 124.18 31.9342 123.858 32.2372C123.541 32.5355 123.158 32.6847 122.708 32.6847ZM129.663 38.6932V45H126.637V34.0909H129.521V36.0156H129.648C129.89 35.3812 130.295 34.8793 130.863 34.5099C131.431 34.1359 132.12 33.9489 132.93 33.9489C133.687 33.9489 134.348 34.1146 134.911 34.446C135.475 34.7775 135.913 35.2509 136.225 35.8665C136.538 36.4773 136.694 37.2064 136.694 38.054V45H133.668V38.5938C133.673 37.9261 133.503 37.4053 133.157 37.0312C132.811 36.6525 132.335 36.4631 131.729 36.4631C131.322 36.4631 130.962 36.5507 130.65 36.7259C130.342 36.901 130.101 37.1567 129.925 37.4929C129.755 37.8243 129.667 38.2244 129.663 38.6932ZM143.993 49.3182C143.013 49.3182 142.173 49.1832 141.472 48.9134C140.776 48.6482 140.222 48.286 139.81 47.8267C139.398 47.3674 139.131 46.8513 139.007 46.2784L141.806 45.902C141.891 46.1198 142.026 46.3234 142.211 46.5128C142.395 46.7022 142.639 46.8537 142.942 46.9673C143.25 47.0857 143.624 47.1449 144.064 47.1449C144.722 47.1449 145.265 46.9839 145.691 46.6619C146.122 46.3447 146.337 45.812 146.337 45.0639V43.0682H146.209C146.077 43.3712 145.878 43.6577 145.613 43.9276C145.347 44.1974 145.007 44.4176 144.59 44.5881C144.173 44.7585 143.676 44.8438 143.098 44.8438C142.279 44.8438 141.533 44.6544 140.861 44.2756C140.194 43.892 139.661 43.3073 139.263 42.5213C138.87 41.7306 138.674 40.7315 138.674 39.5241C138.674 38.2884 138.875 37.2562 139.277 36.4276C139.68 35.599 140.215 34.9787 140.882 34.5668C141.555 34.1548 142.291 33.9489 143.091 33.9489C143.702 33.9489 144.213 34.053 144.625 34.2614C145.037 34.465 145.369 34.7206 145.62 35.0284C145.875 35.3314 146.072 35.6297 146.209 35.9233H146.323V34.0909H149.327V45.1065C149.327 46.0346 149.1 46.8111 148.645 47.4361C148.191 48.0611 147.561 48.5298 146.756 48.8423C145.956 49.1596 145.035 49.3182 143.993 49.3182ZM144.057 42.571C144.545 42.571 144.957 42.4503 145.293 42.2088C145.634 41.9626 145.894 41.6122 146.074 41.1577C146.259 40.6984 146.351 40.1491 146.351 39.5099C146.351 38.8707 146.261 38.3168 146.081 37.848C145.901 37.3745 145.641 37.0076 145.3 36.7472C144.959 36.4867 144.545 36.3565 144.057 36.3565C143.56 36.3565 143.141 36.4915 142.8 36.7614C142.459 37.0265 142.201 37.3958 142.026 37.8693C141.851 38.3428 141.763 38.8897 141.763 39.5099C141.763 40.1397 141.851 40.6842 142.026 41.1435C142.206 41.598 142.464 41.9508 142.8 42.2017C143.141 42.4479 143.56 42.571 144.057 42.571ZM158.516 45L155.547 34.0909H158.608L160.298 41.4205H160.398L162.159 34.0909H165.163L166.953 41.3778H167.045L168.707 34.0909H171.761L168.8 45H165.597L163.722 38.1392H163.587L161.712 45H158.516ZM173.375 45V34.0909H176.401V45H173.375ZM174.895 32.6847C174.445 32.6847 174.06 32.5355 173.738 32.2372C173.42 31.9342 173.262 31.572 173.262 31.1506C173.262 30.7339 173.42 30.3764 173.738 30.0781C174.06 29.7751 174.445 29.6236 174.895 29.6236C175.345 29.6236 175.729 29.7751 176.046 30.0781C176.368 30.3764 176.529 30.7339 176.529 31.1506C176.529 31.572 176.368 31.9342 176.046 32.2372C175.729 32.5355 175.345 32.6847 174.895 32.6847ZM184.627 34.0909V36.3636H178.058V34.0909H184.627ZM179.549 31.4773H182.575V41.6477C182.575 41.9271 182.617 42.1449 182.702 42.3011C182.788 42.4527 182.906 42.5592 183.058 42.6207C183.214 42.6823 183.394 42.7131 183.597 42.7131C183.739 42.7131 183.881 42.7012 184.023 42.6776C184.165 42.6491 184.274 42.6278 184.35 42.6136L184.826 44.8651C184.674 44.9124 184.461 44.9669 184.187 45.0284C183.912 45.0947 183.578 45.1349 183.185 45.1491C182.456 45.1776 181.817 45.0805 181.268 44.858C180.723 44.6354 180.299 44.2898 179.996 43.821C179.693 43.3523 179.544 42.7604 179.549 42.0455V31.4773ZM189.858 38.6932V45H186.832V30.4545H189.773V36.0156H189.901C190.147 35.3717 190.545 34.8674 191.094 34.5028C191.643 34.1335 192.332 33.9489 193.161 33.9489C193.918 33.9489 194.579 34.1146 195.142 34.446C195.71 34.7727 196.151 35.2438 196.463 35.8594C196.78 36.4702 196.937 37.2017 196.932 38.054V45H193.906V38.5938C193.911 37.9214 193.741 37.3982 193.395 37.0241C193.054 36.6501 192.576 36.4631 191.96 36.4631C191.548 36.4631 191.184 36.5507 190.866 36.7259C190.554 36.901 190.308 37.1567 190.128 37.4929C189.953 37.8243 189.863 38.2244 189.858 38.6932ZM216.832 35.5469H213.722C213.665 35.1444 213.549 34.7869 213.374 34.4744C213.198 34.1572 212.973 33.8873 212.699 33.6648C212.424 33.4422 212.107 33.2718 211.747 33.1534C211.392 33.035 211.006 32.9759 210.589 32.9759C209.837 32.9759 209.181 33.1629 208.622 33.5369C208.063 33.9062 207.63 34.446 207.322 35.1562C207.015 35.8617 206.861 36.7187 206.861 37.7273C206.861 38.7642 207.015 39.6354 207.322 40.3409C207.635 41.0464 208.071 41.5791 208.629 41.9389C209.188 42.2988 209.834 42.4787 210.568 42.4787C210.98 42.4787 211.361 42.4242 211.712 42.3153C212.067 42.2064 212.382 42.0478 212.656 41.8395C212.931 41.6264 213.158 41.3684 213.338 41.0653C213.523 40.7623 213.651 40.4167 213.722 40.0284L216.832 40.0426C216.752 40.7102 216.551 41.3542 216.229 41.9744C215.911 42.59 215.483 43.1416 214.943 43.6293C214.408 44.1122 213.769 44.4957 213.026 44.7798C212.287 45.0592 211.451 45.1989 210.518 45.1989C209.221 45.1989 208.061 44.9053 207.038 44.3182C206.02 43.7311 205.215 42.8812 204.624 41.7685C204.036 40.6558 203.743 39.3087 203.743 37.7273C203.743 36.1411 204.041 34.7917 204.638 33.679C205.234 32.5663 206.044 31.7187 207.067 31.1364C208.089 30.5492 209.24 30.2557 210.518 30.2557C211.361 30.2557 212.143 30.3741 212.862 30.6108C213.587 30.8475 214.228 31.1932 214.787 31.6477C215.346 32.0975 215.8 32.6491 216.151 33.3026C216.506 33.956 216.733 34.7041 216.832 35.5469ZM219.038 45V30.4545H228.839V32.9901H222.113V36.456H228.335V38.9915H222.113V42.4645H228.867V45H219.038ZM244.65 37.7273C244.65 39.3134 244.35 40.6629 243.748 41.7756C243.152 42.8883 242.337 43.7382 241.305 44.3253C240.278 44.9077 239.122 45.1989 237.839 45.1989C236.547 45.1989 235.386 44.9053 234.359 44.3182C233.332 43.7311 232.52 42.8812 231.923 41.7685C231.326 40.6558 231.028 39.3087 231.028 37.7273C231.028 36.1411 231.326 34.7917 231.923 33.679C232.52 32.5663 233.332 31.7187 234.359 31.1364C235.386 30.5492 236.547 30.2557 237.839 30.2557C239.122 30.2557 240.278 30.5492 241.305 31.1364C242.337 31.7187 243.152 32.5663 243.748 33.679C244.35 34.7917 244.65 36.1411 244.65 37.7273ZM241.532 37.7273C241.532 36.6998 241.378 35.8333 241.071 35.1278C240.768 34.4223 240.339 33.8873 239.785 33.5227C239.231 33.1581 238.583 32.9759 237.839 32.9759C237.096 32.9759 236.447 33.1581 235.893 33.5227C235.339 33.8873 234.908 34.4223 234.6 35.1278C234.297 35.8333 234.146 36.6998 234.146 37.7273C234.146 38.7547 234.297 39.6212 234.6 40.3267C234.908 41.0322 235.339 41.5672 235.893 41.9318C236.447 42.2964 237.096 42.4787 237.839 42.4787C238.583 42.4787 239.231 42.2964 239.785 41.9318C240.339 41.5672 240.768 41.0322 241.071 40.3267C241.378 39.6212 241.532 38.7547 241.532 37.7273Z" fill="black"/>
<path d="M71.321 83V72.0909H77.9048V73.2628H72.642V76.9489H77.5639V78.1207H72.642V81.8281H77.9901V83H71.321ZM81.3725 78.0781V83H80.1154V74.8182H81.3299V76.0966H81.4364C81.6282 75.6811 81.9194 75.3473 82.31 75.0952C82.7006 74.8395 83.2049 74.7116 83.8228 74.7116C84.3768 74.7116 84.8615 74.8253 85.277 75.0526C85.6925 75.2763 86.0156 75.6172 86.2464 76.0753C86.4773 76.5298 86.5927 77.1051 86.5927 77.8011V83H85.3356V77.8864C85.3356 77.2436 85.1687 76.7429 84.8349 76.3842C84.5011 76.022 84.043 75.8409 83.4606 75.8409C83.0593 75.8409 82.7006 75.9279 82.3846 76.1019C82.0721 76.2759 81.8253 76.5298 81.6442 76.8636C81.4631 77.1974 81.3725 77.6023 81.3725 78.0781ZM94.6853 76.6506L93.556 76.9702C93.485 76.782 93.3802 76.5991 93.2417 76.4215C93.1068 76.2404 92.9221 76.0913 92.6878 75.9741C92.4534 75.8569 92.1533 75.7983 91.7876 75.7983C91.2868 75.7983 90.8696 75.9137 90.5358 76.1445C90.2055 76.3718 90.0404 76.6612 90.0404 77.0128C90.0404 77.3253 90.154 77.5721 90.3813 77.7532C90.6086 77.9343 90.9637 78.0852 91.4466 78.206L92.6611 78.5043C93.3927 78.6818 93.9378 78.9535 94.2964 79.3192C94.6551 79.6815 94.8344 80.1484 94.8344 80.7202C94.8344 81.1889 94.6995 81.608 94.4296 81.9773C94.1633 82.3466 93.7904 82.6378 93.311 82.8509C92.8316 83.0639 92.2741 83.1705 91.6384 83.1705C90.8039 83.1705 90.1132 82.9893 89.5663 82.6271C89.0194 82.2649 88.6732 81.7358 88.5276 81.0398L89.7208 80.7415C89.8344 81.1818 90.0493 81.5121 90.3653 81.7322C90.6849 81.9524 91.1022 82.0625 91.6171 82.0625C92.203 82.0625 92.6682 81.9382 93.0127 81.6896C93.3607 81.4375 93.5347 81.1357 93.5347 80.7841C93.5347 80.5 93.4353 80.2621 93.2364 80.0703C93.0376 79.875 92.7322 79.7294 92.3202 79.6335L90.9566 79.3139C90.2073 79.1364 89.6569 78.8612 89.3053 78.4883C88.9573 78.1119 88.7833 77.6413 88.7833 77.0767C88.7833 76.6151 88.9129 76.2067 89.1721 75.8516C89.4349 75.4964 89.7918 75.2177 90.2428 75.0153C90.6974 74.8129 91.2123 74.7116 91.7876 74.7116C92.5972 74.7116 93.2329 74.8892 93.6945 75.2443C94.1597 75.5994 94.49 76.0682 94.6853 76.6506ZM101.883 79.6548V74.8182H103.14V83H101.883V81.6151H101.798C101.606 82.0305 101.308 82.3839 100.903 82.6751C100.498 82.9627 99.9867 83.1065 99.3688 83.1065C98.8574 83.1065 98.4029 82.9947 98.0051 82.771C97.6074 82.5437 97.2949 82.2028 97.0676 81.7482C96.8404 81.2901 96.7267 80.7131 96.7267 80.017V74.8182H97.9838V79.9318C97.9838 80.5284 98.1507 81.0043 98.4846 81.3594C98.8219 81.7145 99.2516 81.892 99.7736 81.892C100.086 81.892 100.404 81.8121 100.727 81.6523C101.054 81.4925 101.327 81.2475 101.547 80.9173C101.771 80.587 101.883 80.1662 101.883 79.6548ZM105.443 83V74.8182H106.657V76.054H106.742C106.891 75.6491 107.161 75.3207 107.552 75.0685C107.943 74.8164 108.383 74.6903 108.873 74.6903C108.965 74.6903 109.081 74.6921 109.219 74.6957C109.358 74.6992 109.462 74.7045 109.533 74.7116V75.9901C109.491 75.9794 109.393 75.9634 109.241 75.9421C109.091 75.9173 108.933 75.9048 108.766 75.9048C108.369 75.9048 108.014 75.9883 107.701 76.1552C107.392 76.3185 107.147 76.5458 106.966 76.837C106.788 77.1246 106.7 77.4531 106.7 77.8224V83H105.443ZM114.205 83.1705C113.417 83.1705 112.737 82.9964 112.165 82.6484C111.597 82.2969 111.158 81.8068 110.849 81.1783C110.544 80.5462 110.391 79.8111 110.391 78.973C110.391 78.1349 110.544 77.3963 110.849 76.7571C111.158 76.1143 111.588 75.6136 112.138 75.255C112.692 74.8928 113.339 74.7116 114.077 74.7116C114.503 74.7116 114.924 74.7827 115.34 74.9247C115.755 75.0668 116.133 75.2976 116.474 75.6172C116.815 75.9332 117.087 76.3523 117.289 76.8743C117.492 77.3963 117.593 78.0391 117.593 78.8026V79.3352H111.286V78.2486H116.314C116.314 77.7869 116.222 77.375 116.037 77.0128C115.856 76.6506 115.597 76.3647 115.26 76.1552C114.926 75.9457 114.532 75.8409 114.077 75.8409C113.576 75.8409 113.143 75.9652 112.777 76.2138C112.415 76.4588 112.136 76.7784 111.941 77.1726C111.746 77.5668 111.648 77.9893 111.648 78.4403V79.1648C111.648 79.7827 111.755 80.3065 111.968 80.7362C112.184 81.1623 112.484 81.4872 112.868 81.7109C113.252 81.9311 113.697 82.0412 114.205 82.0412C114.535 82.0412 114.834 81.995 115.1 81.9027C115.37 81.8068 115.602 81.6648 115.798 81.4766C115.993 81.2848 116.144 81.0469 116.25 80.7628L117.465 81.1037C117.337 81.5156 117.122 81.8778 116.82 82.1903C116.519 82.4993 116.146 82.7408 115.702 82.9148C115.258 83.0852 114.759 83.1705 114.205 83.1705ZM126.131 83.1918C125.613 83.1918 125.142 83.0941 124.72 82.8988C124.297 82.6999 123.962 82.4141 123.713 82.0412C123.465 81.6648 123.34 81.2102 123.34 80.6776C123.34 80.2088 123.433 79.8288 123.617 79.5376C123.802 79.2429 124.049 79.0121 124.358 78.8452C124.667 78.6783 125.008 78.554 125.38 78.4723C125.757 78.3871 126.135 78.3196 126.515 78.2699C127.012 78.206 127.415 78.158 127.724 78.1261C128.037 78.0906 128.264 78.032 128.406 77.9503C128.552 77.8686 128.624 77.7266 128.624 77.5241V77.4815C128.624 76.956 128.481 76.5476 128.193 76.2564C127.909 75.9652 127.477 75.8196 126.899 75.8196C126.298 75.8196 125.828 75.951 125.487 76.2138C125.146 76.4766 124.906 76.7571 124.768 77.0554L123.575 76.6293C123.788 76.1321 124.072 75.745 124.427 75.468C124.786 75.1875 125.176 74.9922 125.599 74.8821C126.025 74.7685 126.444 74.7116 126.856 74.7116C127.119 74.7116 127.421 74.7436 127.761 74.8075C128.106 74.8679 128.438 74.994 128.758 75.1857C129.081 75.3775 129.349 75.6669 129.562 76.054C129.775 76.4411 129.881 76.9595 129.881 77.6094V83H128.624V81.892H128.56C128.475 82.0696 128.333 82.2596 128.134 82.462C127.935 82.6644 127.671 82.8366 127.341 82.9787C127.01 83.1207 126.607 83.1918 126.131 83.1918ZM126.323 82.0625C126.82 82.0625 127.239 81.9648 127.58 81.7695C127.925 81.5742 128.184 81.3221 128.358 81.0131C128.536 80.7042 128.624 80.3793 128.624 80.0384V78.8878C128.571 78.9517 128.454 79.0103 128.273 79.0636C128.095 79.1133 127.889 79.1577 127.655 79.1967C127.424 79.2322 127.199 79.2642 126.978 79.2926C126.762 79.3175 126.586 79.3388 126.451 79.3565C126.124 79.3991 125.819 79.4684 125.535 79.5643C125.254 79.6566 125.027 79.7969 124.853 79.9851C124.683 80.1697 124.597 80.4219 124.597 80.7415C124.597 81.1783 124.759 81.5085 125.082 81.7322C125.409 81.9524 125.823 82.0625 126.323 82.0625ZM133.433 72.0909V83H132.176V72.0909H133.433ZM136.993 72.0909V83H135.736V72.0909H136.993ZM146.603 83.1705C145.922 83.1705 145.32 82.9982 144.798 82.6538C144.276 82.3058 143.867 81.8157 143.572 81.1836C143.278 80.5479 143.13 79.7969 143.13 78.9304C143.13 78.071 143.278 77.3253 143.572 76.6932C143.867 76.0611 144.277 75.5728 144.803 75.2283C145.328 74.8839 145.936 74.7116 146.625 74.7116C147.157 74.7116 147.578 74.8004 147.887 74.978C148.2 75.152 148.438 75.3509 148.601 75.5746C148.768 75.7947 148.897 75.9759 148.99 76.1179H149.096V72.0909H150.353V83H149.139V81.7429H148.99C148.897 81.892 148.766 82.0803 148.596 82.3075C148.425 82.5312 148.182 82.7319 147.866 82.9094C147.55 83.0835 147.129 83.1705 146.603 83.1705ZM146.774 82.0412C147.278 82.0412 147.704 81.9098 148.052 81.647C148.4 81.3807 148.665 81.0131 148.846 80.5444C149.027 80.0721 149.118 79.527 149.118 78.9091C149.118 78.2983 149.029 77.7638 148.851 77.3058C148.674 76.8441 148.411 76.4854 148.063 76.2298C147.715 75.9705 147.285 75.8409 146.774 75.8409C146.241 75.8409 145.797 75.9776 145.442 76.2511C145.091 76.521 144.826 76.8885 144.648 77.3537C144.474 77.8153 144.387 78.3338 144.387 78.9091C144.387 79.4915 144.476 80.0206 144.654 80.4964C144.835 80.9687 145.101 81.3452 145.453 81.6257C145.808 81.9027 146.248 82.0412 146.774 82.0412ZM156.154 83.1705C155.415 83.1705 154.767 82.9947 154.21 82.6431C153.656 82.2915 153.223 81.7997 152.91 81.1676C152.601 80.5355 152.447 79.7969 152.447 78.9517C152.447 78.0994 152.601 77.3555 152.91 76.7198C153.223 76.0842 153.656 75.5906 154.21 75.239C154.767 74.8874 155.415 74.7116 156.154 74.7116C156.893 74.7116 157.539 74.8874 158.093 75.239C158.651 75.5906 159.084 76.0842 159.393 76.7198C159.705 77.3555 159.862 78.0994 159.862 78.9517C159.862 79.7969 159.705 80.5355 159.393 81.1676C159.084 81.7997 158.651 82.2915 158.093 82.6431C157.539 82.9947 156.893 83.1705 156.154 83.1705ZM156.154 82.0412C156.715 82.0412 157.177 81.8974 157.539 81.6097C157.901 81.3221 158.169 80.9439 158.343 80.4751C158.517 80.0064 158.604 79.4986 158.604 78.9517C158.604 78.4048 158.517 77.8952 158.343 77.4229C158.169 76.9506 157.901 76.5689 157.539 76.2777C157.177 75.9865 156.715 75.8409 156.154 75.8409C155.593 75.8409 155.131 75.9865 154.769 76.2777C154.407 76.5689 154.139 76.9506 153.965 77.4229C153.791 77.8952 153.704 78.4048 153.704 78.9517C153.704 79.4986 153.791 80.0064 153.965 80.4751C154.139 80.9439 154.407 81.3221 154.769 81.6097C155.131 81.8974 155.593 82.0412 156.154 82.0412ZM165.104 83.1705C164.337 83.1705 163.677 82.9893 163.123 82.6271C162.569 82.2649 162.143 81.766 161.844 81.1303C161.546 80.4947 161.397 79.7685 161.397 78.9517C161.397 78.1207 161.55 77.3874 161.855 76.7518C162.164 76.1126 162.594 75.6136 163.144 75.255C163.698 74.8928 164.344 74.7116 165.083 74.7116C165.658 74.7116 166.177 74.8182 166.638 75.0312C167.1 75.2443 167.478 75.5426 167.773 75.9261C168.068 76.3097 168.251 76.7571 168.322 77.2685H167.065C166.969 76.8956 166.756 76.5653 166.425 76.2777C166.099 75.9865 165.658 75.8409 165.104 75.8409C164.614 75.8409 164.185 75.9687 163.815 76.2244C163.449 76.4766 163.164 76.8335 162.958 77.2951C162.755 77.7532 162.654 78.2912 162.654 78.9091C162.654 79.5412 162.753 80.0916 162.952 80.5604C163.155 81.0291 163.439 81.3931 163.805 81.6523C164.174 81.9116 164.607 82.0412 165.104 82.0412C165.431 82.0412 165.728 81.9844 165.994 81.8707C166.26 81.7571 166.486 81.5938 166.67 81.3807C166.855 81.1676 166.986 80.9119 167.065 80.6136H168.322C168.251 81.0966 168.075 81.5316 167.794 81.9187C167.517 82.3022 167.15 82.6076 166.692 82.8349C166.237 83.0586 165.708 83.1705 165.104 83.1705ZM175.316 79.6548V74.8182H176.573V83H175.316V81.6151H175.23C175.039 82.0305 174.74 82.3839 174.335 82.6751C173.931 82.9627 173.419 83.1065 172.801 83.1065C172.29 83.1065 171.835 82.9947 171.438 82.771C171.04 82.5437 170.728 82.2028 170.5 81.7482C170.273 81.2901 170.159 80.7131 170.159 80.017V74.8182H171.416V79.9318C171.416 80.5284 171.583 81.0043 171.917 81.3594C172.255 81.7145 172.684 81.892 173.206 81.892C173.519 81.892 173.837 81.8121 174.16 81.6523C174.486 81.4925 174.76 81.2475 174.98 80.9173C175.204 80.587 175.316 80.1662 175.316 79.6548ZM178.875 83V74.8182H180.09V76.0966H180.196C180.367 75.6598 180.642 75.3207 181.022 75.0792C181.402 74.8342 181.858 74.7116 182.391 74.7116C182.931 74.7116 183.38 74.8342 183.738 75.0792C184.101 75.3207 184.383 75.6598 184.585 76.0966H184.671C184.88 75.674 185.194 75.3384 185.613 75.0898C186.032 74.8377 186.535 74.7116 187.121 74.7116C187.852 74.7116 188.451 74.9407 188.916 75.3988C189.381 75.8533 189.614 76.5618 189.614 77.5241V83H188.357V77.5241C188.357 76.9205 188.192 76.489 187.861 76.2298C187.531 75.9705 187.142 75.8409 186.695 75.8409C186.119 75.8409 185.674 76.0149 185.358 76.3629C185.042 76.7074 184.884 77.1442 184.884 77.6733V83H183.605V77.3963C183.605 76.9311 183.454 76.5565 183.153 76.2724C182.851 75.9847 182.462 75.8409 181.986 75.8409C181.659 75.8409 181.354 75.9279 181.07 76.1019C180.789 76.2759 180.562 76.5174 180.388 76.8263C180.218 77.1317 180.132 77.4851 180.132 77.8864V83H178.875ZM195.343 83.1705C194.554 83.1705 193.874 82.9964 193.303 82.6484C192.734 82.2969 192.296 81.8068 191.987 81.1783C191.681 80.5462 191.529 79.8111 191.529 78.973C191.529 78.1349 191.681 77.3963 191.987 76.7571C192.296 76.1143 192.725 75.6136 193.276 75.255C193.83 74.8928 194.476 74.7116 195.215 74.7116C195.641 74.7116 196.062 74.7827 196.477 74.9247C196.893 75.0668 197.271 75.2976 197.612 75.6172C197.953 75.9332 198.224 76.3523 198.427 76.8743C198.629 77.3963 198.73 78.0391 198.73 78.8026V79.3352H192.424V78.2486H197.452C197.452 77.7869 197.36 77.375 197.175 77.0128C196.994 76.6506 196.735 76.3647 196.397 76.1552C196.064 75.9457 195.669 75.8409 195.215 75.8409C194.714 75.8409 194.281 75.9652 193.915 76.2138C193.553 76.4588 193.274 76.7784 193.079 77.1726C192.884 77.5668 192.786 77.9893 192.786 78.4403V79.1648C192.786 79.7827 192.892 80.3065 193.105 80.7362C193.322 81.1623 193.622 81.4872 194.006 81.7109C194.389 81.9311 194.835 82.0412 195.343 82.0412C195.673 82.0412 195.971 81.995 196.238 81.9027C196.507 81.8068 196.74 81.6648 196.935 81.4766C197.131 81.2848 197.282 81.0469 197.388 80.7628L198.603 81.1037C198.475 81.5156 198.26 81.8778 197.958 82.1903C197.656 82.4993 197.283 82.7408 196.839 82.9148C196.396 83.0852 195.897 83.1705 195.343 83.1705ZM201.9 78.0781V83H200.643V74.8182H201.857V76.0966H201.964C202.156 75.6811 202.447 75.3473 202.837 75.0952C203.228 74.8395 203.732 74.7116 204.35 74.7116C204.904 74.7116 205.389 74.8253 205.804 75.0526C206.22 75.2763 206.543 75.6172 206.774 76.0753C207.005 76.5298 207.12 77.1051 207.12 77.8011V83H205.863V77.8864C205.863 77.2436 205.696 76.7429 205.362 76.3842C205.028 76.022 204.57 75.8409 203.988 75.8409C203.587 75.8409 203.228 75.9279 202.912 76.1019C202.599 76.2759 202.353 76.5298 202.172 76.8636C201.99 77.1974 201.9 77.6023 201.9 78.0781ZM212.975 74.8182V75.8835H208.735V74.8182H212.975ZM209.971 72.858H211.228V80.6562C211.228 81.0114 211.28 81.2777 211.383 81.4553C211.489 81.6293 211.624 81.7464 211.788 81.8068C211.954 81.8636 212.13 81.892 212.315 81.892C212.453 81.892 212.567 81.8849 212.656 81.8707C212.745 81.853 212.816 81.8388 212.869 81.8281L213.125 82.9574C213.039 82.9893 212.92 83.0213 212.768 83.0533C212.615 83.0888 212.421 83.1065 212.187 83.1065C211.832 83.1065 211.484 83.0302 211.143 82.8775C210.806 82.7248 210.525 82.4922 210.301 82.1797C210.081 81.8672 209.971 81.473 209.971 80.9972V72.858ZM220.515 76.6506L219.386 76.9702C219.315 76.782 219.21 76.5991 219.072 76.4215C218.937 76.2404 218.752 76.0913 218.518 75.9741C218.283 75.8569 217.983 75.7983 217.618 75.7983C217.117 75.7983 216.7 75.9137 216.366 76.1445C216.036 76.3718 215.87 76.6612 215.87 77.0128C215.87 77.3253 215.984 77.5721 216.211 77.7532C216.439 77.9343 216.794 78.0852 217.277 78.206L218.491 78.5043C219.223 78.6818 219.768 78.9535 220.127 79.3192C220.485 79.6815 220.665 80.1484 220.665 80.7202C220.665 81.1889 220.53 81.608 220.26 81.9773C219.993 82.3466 219.62 82.6378 219.141 82.8509C218.662 83.0639 218.104 83.1705 217.468 83.1705C216.634 83.1705 215.943 82.9893 215.396 82.6271C214.85 82.2649 214.503 81.7358 214.358 81.0398L215.551 80.7415C215.665 81.1818 215.879 81.5121 216.195 81.7322C216.515 81.9524 216.932 82.0625 217.447 82.0625C218.033 82.0625 218.498 81.9382 218.843 81.6896C219.191 81.4375 219.365 81.1357 219.365 80.7841C219.365 80.5 219.265 80.2621 219.066 80.0703C218.868 79.875 218.562 79.7294 218.15 79.6335L216.787 79.3139C216.037 79.1364 215.487 78.8612 215.135 78.4883C214.787 78.1119 214.613 77.6413 214.613 77.0767C214.613 76.6151 214.743 76.2067 215.002 75.8516C215.265 75.4964 215.622 75.2177 216.073 75.0153C216.527 74.8129 217.042 74.7116 217.618 74.7116C218.427 74.7116 219.063 74.8892 219.525 75.2443C219.99 75.5994 220.32 76.0682 220.515 76.6506ZM229.183 83.1918C228.665 83.1918 228.194 83.0941 227.772 82.8988C227.349 82.6999 227.013 82.4141 226.765 82.0412C226.516 81.6648 226.392 81.2102 226.392 80.6776C226.392 80.2088 226.484 79.8288 226.669 79.5376C226.854 79.2429 227.1 79.0121 227.409 78.8452C227.718 78.6783 228.059 78.554 228.432 78.4723C228.809 78.3871 229.187 78.3196 229.567 78.2699C230.064 78.206 230.467 78.158 230.776 78.1261C231.088 78.0906 231.316 78.032 231.458 77.9503C231.603 77.8686 231.676 77.7266 231.676 77.5241V77.4815C231.676 76.956 231.532 76.5476 231.245 76.2564C230.961 75.9652 230.529 75.8196 229.95 75.8196C229.35 75.8196 228.88 75.951 228.539 76.2138C228.198 76.4766 227.958 76.7571 227.82 77.0554L226.626 76.6293C226.839 76.1321 227.124 75.745 227.479 75.468C227.837 75.1875 228.228 74.9922 228.651 74.8821C229.077 74.7685 229.496 74.7116 229.908 74.7116C230.17 74.7116 230.472 74.7436 230.813 74.8075C231.158 74.8679 231.49 74.994 231.809 75.1857C232.132 75.3775 232.401 75.6669 232.614 76.054C232.827 76.4411 232.933 76.9595 232.933 77.6094V83H231.676V81.892H231.612C231.527 82.0696 231.385 82.2596 231.186 82.462C230.987 82.6644 230.723 82.8366 230.392 82.9787C230.062 83.1207 229.659 83.1918 229.183 83.1918ZM229.375 82.0625C229.872 82.0625 230.291 81.9648 230.632 81.7695C230.977 81.5742 231.236 81.3221 231.41 81.0131C231.587 80.7042 231.676 80.3793 231.676 80.0384V78.8878C231.623 78.9517 231.506 79.0103 231.325 79.0636C231.147 79.1133 230.941 79.1577 230.707 79.1967C230.476 79.2322 230.25 79.2642 230.03 79.2926C229.814 79.3175 229.638 79.3388 229.503 79.3565C229.176 79.3991 228.871 79.4684 228.587 79.5643C228.306 79.6566 228.079 79.7969 227.905 79.9851C227.734 80.1697 227.649 80.4219 227.649 80.7415C227.649 81.1783 227.811 81.5085 228.134 81.7322C228.461 81.9524 228.874 82.0625 229.375 82.0625ZM235.228 83V74.8182H236.442V76.054H236.527C236.677 75.6491 236.946 75.3207 237.337 75.0685C237.728 74.8164 238.168 74.6903 238.658 74.6903C238.75 74.6903 238.866 74.6921 239.004 74.6957C239.143 74.6992 239.248 74.7045 239.319 74.7116V75.9901C239.276 75.9794 239.178 75.9634 239.026 75.9421C238.877 75.9173 238.718 75.9048 238.552 75.9048C238.154 75.9048 237.799 75.9883 237.486 76.1552C237.177 76.3185 236.932 76.5458 236.751 76.837C236.574 77.1246 236.485 77.4531 236.485 77.8224V83H235.228ZM243.99 83.1705C243.202 83.1705 242.522 82.9964 241.95 82.6484C241.382 82.2969 240.943 81.8068 240.634 81.1783C240.329 80.5462 240.176 79.8111 240.176 78.973C240.176 78.1349 240.329 77.3963 240.634 76.7571C240.943 76.1143 241.373 75.6136 241.923 75.255C242.477 74.8928 243.124 74.7116 243.862 74.7116C244.288 74.7116 244.709 74.7827 245.125 74.9247C245.54 75.0668 245.918 75.2976 246.259 75.6172C246.6 75.9332 246.872 76.3523 247.074 76.8743C247.277 77.3963 247.378 78.0391 247.378 78.8026V79.3352H241.071V78.2486H246.1C246.1 77.7869 246.007 77.375 245.823 77.0128C245.641 76.6506 245.382 76.3647 245.045 76.1552C244.711 75.9457 244.317 75.8409 243.862 75.8409C243.362 75.8409 242.928 75.9652 242.563 76.2138C242.2 76.4588 241.922 76.7784 241.726 77.1726C241.531 77.5668 241.433 77.9893 241.433 78.4403V79.1648C241.433 79.7827 241.54 80.3065 241.753 80.7362C241.97 81.1623 242.27 81.4872 242.653 81.7109C243.037 81.9311 243.482 82.0412 243.99 82.0412C244.32 82.0412 244.619 81.995 244.885 81.9027C245.155 81.8068 245.388 81.6648 245.583 81.4766C245.778 81.2848 245.929 81.0469 246.036 80.7628L247.25 81.1037C247.122 81.5156 246.907 81.8778 246.606 82.1903C246.304 82.4993 245.931 82.7408 245.487 82.9148C245.043 83.0852 244.544 83.1705 243.99 83.1705ZM253.509 83V74.8182H254.723V76.054H254.809C254.958 75.6491 255.228 75.3207 255.618 75.0685C256.009 74.8164 256.449 74.6903 256.939 74.6903C257.032 74.6903 257.147 74.6921 257.286 74.6957C257.424 74.6992 257.529 74.7045 257.6 74.7116V75.9901C257.557 75.9794 257.46 75.9634 257.307 75.9421C257.158 75.9173 257 75.9048 256.833 75.9048C256.435 75.9048 256.08 75.9883 255.767 76.1552C255.459 76.3185 255.214 76.5458 255.032 76.837C254.855 77.1246 254.766 77.4531 254.766 77.8224V83H253.509ZM262.271 83.1705C261.483 83.1705 260.803 82.9964 260.231 82.6484C259.663 82.2969 259.225 81.8068 258.916 81.1783C258.61 80.5462 258.457 79.8111 258.457 78.973C258.457 78.1349 258.61 77.3963 258.916 76.7571C259.225 76.1143 259.654 75.6136 260.205 75.255C260.759 74.8928 261.405 74.7116 262.144 74.7116C262.57 74.7116 262.991 74.7827 263.406 74.9247C263.821 75.0668 264.2 75.2976 264.541 75.6172C264.881 75.9332 265.153 76.3523 265.356 76.8743C265.558 77.3963 265.659 78.0391 265.659 78.8026V79.3352H259.352V78.2486H264.381C264.381 77.7869 264.288 77.375 264.104 77.0128C263.923 76.6506 263.663 76.3647 263.326 76.1552C262.992 75.9457 262.598 75.8409 262.144 75.8409C261.643 75.8409 261.21 75.9652 260.844 76.2138C260.482 76.4588 260.203 76.7784 260.008 77.1726C259.812 77.5668 259.715 77.9893 259.715 78.4403V79.1648C259.715 79.7827 259.821 80.3065 260.034 80.7362C260.251 81.1623 260.551 81.4872 260.934 81.7109C261.318 81.9311 261.764 82.0412 262.271 82.0412C262.602 82.0412 262.9 81.995 263.166 81.9027C263.436 81.8068 263.669 81.6648 263.864 81.4766C264.059 81.2848 264.21 81.0469 264.317 80.7628L265.531 81.1037C265.403 81.5156 265.189 81.8778 264.887 82.1903C264.585 82.4993 264.212 82.7408 263.768 82.9148C263.324 83.0852 262.825 83.1705 262.271 83.1705ZM269.979 83.1918C269.461 83.1918 268.99 83.0941 268.568 82.8988C268.145 82.6999 267.809 82.4141 267.561 82.0412C267.312 81.6648 267.188 81.2102 267.188 80.6776C267.188 80.2088 267.28 79.8288 267.465 79.5376C267.65 79.2429 267.896 79.0121 268.205 78.8452C268.514 78.6783 268.855 78.554 269.228 78.4723C269.604 78.3871 269.983 78.3196 270.363 78.2699C270.86 78.206 271.263 78.158 271.572 78.1261C271.884 78.0906 272.112 78.032 272.254 77.9503C272.399 77.8686 272.472 77.7266 272.472 77.5241V77.4815C272.472 76.956 272.328 76.5476 272.041 76.2564C271.756 75.9652 271.325 75.8196 270.746 75.8196C270.146 75.8196 269.676 75.951 269.335 76.2138C268.994 76.4766 268.754 76.7571 268.616 77.0554L267.422 76.6293C267.635 76.1321 267.919 75.745 268.275 75.468C268.633 75.1875 269.024 74.9922 269.446 74.8821C269.873 74.7685 270.292 74.7116 270.704 74.7116C270.966 74.7116 271.268 74.7436 271.609 74.8075C271.954 74.8679 272.286 74.994 272.605 75.1857C272.928 75.3775 273.196 75.6669 273.41 76.054C273.623 76.4411 273.729 76.9595 273.729 77.6094V83H272.472V81.892H272.408C272.323 82.0696 272.181 82.2596 271.982 82.462C271.783 82.6644 271.519 82.8366 271.188 82.9787C270.858 83.1207 270.455 83.1918 269.979 83.1918ZM270.171 82.0625C270.668 82.0625 271.087 81.9648 271.428 81.7695C271.772 81.5742 272.032 81.3221 272.206 81.0131C272.383 80.7042 272.472 80.3793 272.472 80.0384V78.8878C272.419 78.9517 272.302 79.0103 272.12 79.0636C271.943 79.1133 271.737 79.1577 271.503 79.1967C271.272 79.2322 271.046 79.2642 270.826 79.2926C270.609 79.3175 270.434 79.3388 270.299 79.3565C269.972 79.3991 269.667 79.4684 269.383 79.5643C269.102 79.6566 268.875 79.7969 268.701 79.9851C268.53 80.1697 268.445 80.4219 268.445 80.7415C268.445 81.1783 268.607 81.5085 268.93 81.7322C269.256 81.9524 269.67 82.0625 270.171 82.0625ZM279.113 83.1705C278.431 83.1705 277.829 82.9982 277.307 82.6538C276.785 82.3058 276.377 81.8157 276.082 81.1836C275.787 80.5479 275.64 79.7969 275.64 78.9304C275.64 78.071 275.787 77.3253 276.082 76.6932C276.377 76.0611 276.787 75.5728 277.313 75.2283C277.838 74.8839 278.445 74.7116 279.134 74.7116C279.667 74.7116 280.088 74.8004 280.397 74.978C280.709 75.152 280.947 75.3509 281.111 75.5746C281.278 75.7947 281.407 75.9759 281.499 76.1179H281.606V72.0909H282.863V83H281.649V81.7429H281.499C281.407 81.892 281.276 82.0803 281.105 82.3075C280.935 82.5312 280.692 82.7319 280.376 82.9094C280.059 83.0835 279.639 83.1705 279.113 83.1705ZM279.284 82.0412C279.788 82.0412 280.214 81.9098 280.562 81.647C280.91 81.3807 281.175 81.0131 281.356 80.5444C281.537 80.0721 281.627 79.527 281.627 78.9091C281.627 78.2983 281.539 77.7638 281.361 77.3058C281.183 76.8441 280.921 76.4854 280.573 76.2298C280.225 75.9705 279.795 75.8409 279.284 75.8409C278.751 75.8409 278.307 75.9776 277.952 76.2511C277.6 76.521 277.336 76.8885 277.158 77.3537C276.984 77.8153 276.897 78.3338 276.897 78.9091C276.897 79.4915 276.986 80.0206 277.164 80.4964C277.345 80.9687 277.611 81.3452 277.963 81.6257C278.318 81.9027 278.758 82.0412 279.284 82.0412ZM286.15 86.0682C285.937 86.0682 285.747 86.0504 285.58 86.0149C285.413 85.983 285.297 85.951 285.233 85.919L285.553 84.8111C285.858 84.8892 286.128 84.9176 286.363 84.8963C286.597 84.875 286.805 84.7702 286.986 84.582C287.171 84.3974 287.339 84.0973 287.492 83.6818L287.726 83.0426L284.701 74.8182H286.064L288.323 81.3381H288.408L290.667 74.8182H292.03L288.557 84.1932C288.401 84.6158 288.208 84.9656 287.977 85.2425C287.746 85.5231 287.478 85.7308 287.172 85.8658C286.871 86.0007 286.53 86.0682 286.15 86.0682Z" fill="#686868"/>
<rect x="21" y="116" width="24" height="23" rx="3" fill="white"/>
<rect x="21" y="116" width="24" height="23" rx="3" stroke="black" stroke-width="2"/>
<path d="M26 127.311L31.6762 132.987L40.6637 124" stroke="black" stroke-width="3.27232" stroke-linecap="round" stroke-linejoin="round"/>
<path d="M71.2642 140V125.455H80.8949V127.99H74.3395V131.456H80.2557V133.991H74.3395V140H71.2642ZM82.9066 140V129.091H85.9322V140H82.9066ZM84.4265 127.685C83.9767 127.685 83.5908 127.536 83.2688 127.237C82.9516 126.934 82.793 126.572 82.793 126.151C82.793 125.734 82.9516 125.376 83.2688 125.078C83.5908 124.775 83.9767 124.624 84.4265 124.624C84.8763 124.624 85.2598 124.775 85.5771 125.078C85.899 125.376 86.06 125.734 86.06 126.151C86.06 126.572 85.899 126.934 85.5771 127.237C85.2598 127.536 84.8763 127.685 84.4265 127.685ZM91.3814 125.455V140H88.3558V125.455H91.3814ZM98.7766 140.213C97.6545 140.213 96.6886 139.986 95.8789 139.531C95.074 139.072 94.4537 138.423 94.0181 137.585C93.5825 136.742 93.3647 135.746 93.3647 134.595C93.3647 133.473 93.5825 132.488 94.0181 131.641C94.4537 130.793 95.0669 130.133 95.8576 129.659C96.6531 129.186 97.5858 128.949 98.6559 128.949C99.3756 128.949 100.046 129.065 100.666 129.297C101.291 129.524 101.835 129.867 102.299 130.327C102.768 130.786 103.133 131.364 103.393 132.06C103.654 132.751 103.784 133.561 103.784 134.489V135.32H94.5721V133.445H100.936C100.936 133.009 100.841 132.623 100.652 132.287C100.462 131.951 100.199 131.688 99.8633 131.499C99.5318 131.304 99.146 131.207 98.7056 131.207C98.2463 131.207 97.8391 131.314 97.484 131.527C97.1336 131.735 96.859 132.017 96.6602 132.372C96.4613 132.723 96.3595 133.113 96.3548 133.544V135.327C96.3548 135.866 96.4542 136.333 96.6531 136.726C96.8567 137.119 97.1431 137.422 97.5124 137.635C97.8817 137.848 98.3197 137.955 98.8263 137.955C99.1625 137.955 99.4703 137.907 99.7496 137.812C100.029 137.718 100.268 137.576 100.467 137.386C100.666 137.197 100.817 136.965 100.922 136.69L103.72 136.875C103.578 137.547 103.287 138.134 102.846 138.636C102.411 139.134 101.847 139.522 101.156 139.801C100.469 140.076 99.6763 140.213 98.7766 140.213ZM122.61 125.455V140H119.954L113.626 130.845H113.519V140H110.444V125.455H113.143L119.421 134.602H119.549V125.455H122.61ZM128.205 140.206C127.509 140.206 126.889 140.085 126.344 139.844C125.8 139.598 125.369 139.235 125.051 138.757C124.739 138.274 124.583 137.673 124.583 136.953C124.583 136.347 124.694 135.838 124.917 135.426C125.139 135.014 125.442 134.683 125.826 134.432C126.209 134.181 126.645 133.991 127.132 133.864C127.625 133.736 128.141 133.646 128.681 133.594C129.315 133.527 129.827 133.466 130.215 133.409C130.603 133.348 130.885 133.258 131.06 133.139C131.235 133.021 131.323 132.846 131.323 132.614V132.571C131.323 132.121 131.181 131.773 130.897 131.527C130.617 131.281 130.22 131.158 129.703 131.158C129.159 131.158 128.726 131.278 128.404 131.52C128.082 131.757 127.869 132.055 127.765 132.415L124.966 132.188C125.108 131.525 125.388 130.952 125.804 130.469C126.221 129.981 126.758 129.607 127.417 129.347C128.079 129.081 128.846 128.949 129.718 128.949C130.324 128.949 130.904 129.02 131.458 129.162C132.016 129.304 132.511 129.524 132.942 129.822C133.378 130.121 133.721 130.504 133.972 130.973C134.223 131.437 134.348 131.993 134.348 132.642V140H131.479V138.487H131.394C131.219 138.828 130.984 139.129 130.691 139.389C130.397 139.645 130.044 139.846 129.632 139.993C129.221 140.135 128.745 140.206 128.205 140.206ZM129.071 138.118C129.516 138.118 129.909 138.03 130.25 137.855C130.591 137.675 130.859 137.434 131.053 137.131C131.247 136.828 131.344 136.484 131.344 136.101V134.943C131.249 135.005 131.119 135.062 130.953 135.114C130.792 135.161 130.61 135.206 130.407 135.249C130.203 135.286 129.999 135.322 129.796 135.355C129.592 135.384 129.408 135.41 129.242 135.433C128.887 135.485 128.577 135.568 128.311 135.682C128.046 135.795 127.84 135.949 127.694 136.143C127.547 136.333 127.473 136.57 127.473 136.854C127.473 137.266 127.623 137.58 127.921 137.798C128.224 138.011 128.607 138.118 129.071 138.118ZM136.696 140V129.091H139.579V131.016H139.707C139.934 130.376 140.313 129.872 140.843 129.503C141.374 129.134 142.008 128.949 142.747 128.949C143.495 128.949 144.132 129.136 144.657 129.51C145.183 129.879 145.533 130.381 145.708 131.016H145.822C146.045 130.391 146.447 129.891 147.029 129.517C147.617 129.138 148.31 128.949 149.11 128.949C150.128 128.949 150.955 129.273 151.589 129.922C152.228 130.566 152.548 131.48 152.548 132.663V140H149.529V133.26C149.529 132.654 149.368 132.199 149.047 131.896C148.725 131.593 148.322 131.442 147.839 131.442C147.29 131.442 146.861 131.617 146.554 131.967C146.246 132.313 146.092 132.77 146.092 133.338V140H143.159V133.196C143.159 132.661 143.005 132.235 142.697 131.918C142.394 131.6 141.994 131.442 141.497 131.442C141.161 131.442 140.858 131.527 140.588 131.697C140.323 131.863 140.112 132.098 139.956 132.401C139.799 132.699 139.721 133.049 139.721 133.452V140H136.696ZM154.938 140V129.091H157.963V140H154.938ZM156.458 127.685C156.008 127.685 155.622 127.536 155.3 127.237C154.983 126.934 154.824 126.572 154.824 126.151C154.824 125.734 154.983 125.376 155.3 125.078C155.622 124.775 156.008 124.624 156.458 124.624C156.908 124.624 157.291 124.775 157.608 125.078C157.93 125.376 158.091 125.734 158.091 126.151C158.091 126.572 157.93 126.934 157.608 127.237C157.291 127.536 156.908 127.685 156.458 127.685ZM163.413 133.693V140H160.387V129.091H163.271V131.016H163.398C163.64 130.381 164.045 129.879 164.613 129.51C165.181 129.136 165.87 128.949 166.68 128.949C167.437 128.949 168.098 129.115 168.661 129.446C169.225 129.777 169.663 130.251 169.975 130.866C170.288 131.477 170.444 132.206 170.444 133.054V140H167.418V133.594C167.423 132.926 167.253 132.405 166.907 132.031C166.561 131.652 166.085 131.463 165.479 131.463C165.072 131.463 164.712 131.551 164.4 131.726C164.092 131.901 163.851 132.157 163.675 132.493C163.505 132.824 163.417 133.224 163.413 133.693ZM177.743 144.318C176.763 144.318 175.923 144.183 175.222 143.913C174.526 143.648 173.972 143.286 173.56 142.827C173.148 142.367 172.881 141.851 172.757 141.278L175.556 140.902C175.641 141.12 175.776 141.323 175.961 141.513C176.145 141.702 176.389 141.854 176.692 141.967C177 142.086 177.374 142.145 177.814 142.145C178.472 142.145 179.015 141.984 179.441 141.662C179.872 141.345 180.087 140.812 180.087 140.064V138.068H179.959C179.827 138.371 179.628 138.658 179.363 138.928C179.097 139.197 178.757 139.418 178.34 139.588C177.923 139.759 177.426 139.844 176.848 139.844C176.029 139.844 175.283 139.654 174.611 139.276C173.944 138.892 173.411 138.307 173.013 137.521C172.62 136.731 172.424 135.732 172.424 134.524C172.424 133.288 172.625 132.256 173.027 131.428C173.43 130.599 173.965 129.979 174.632 129.567C175.305 129.155 176.041 128.949 176.841 128.949C177.452 128.949 177.963 129.053 178.375 129.261C178.787 129.465 179.119 129.721 179.37 130.028C179.625 130.331 179.822 130.63 179.959 130.923H180.073V129.091H183.077V140.107C183.077 141.035 182.85 141.811 182.395 142.436C181.941 143.061 181.311 143.53 180.506 143.842C179.706 144.16 178.785 144.318 177.743 144.318ZM177.807 137.571C178.295 137.571 178.707 137.45 179.043 137.209C179.384 136.963 179.644 136.612 179.824 136.158C180.009 135.698 180.101 135.149 180.101 134.51C180.101 133.871 180.011 133.317 179.831 132.848C179.651 132.375 179.391 132.008 179.05 131.747C178.709 131.487 178.295 131.357 177.807 131.357C177.31 131.357 176.891 131.491 176.55 131.761C176.209 132.027 175.951 132.396 175.776 132.869C175.601 133.343 175.513 133.89 175.513 134.51C175.513 135.14 175.601 135.684 175.776 136.143C175.956 136.598 176.214 136.951 176.55 137.202C176.891 137.448 177.31 137.571 177.807 137.571Z" fill="#727272"/>
<path d="M70 133.452H184.284V134.815H70V133.452Z" fill="#727272"/>
</g>
<rect x="0.5" y="0.5" width="381" height="161" rx="4.5" stroke="#9747FF" stroke-dasharray="10 5"/>
<defs>
<clipPath id="clip0_36_53595">
<rect width="382" height="162" rx="5" fill="white"/>
</clipPath>
</defs>
</svg>
